<svg width="33" height="33" viewBox="0 0 33 33" fill="none" xmlns="http://www.w3.org/2000/svg">
<rect width="33" height="33" rx="8" fill="#D0FD3E"/>
<path d="M15.4573 18.0453C15.4003 17.9508 15.3848 17.8432 15.3511 17.7409C15.3213 17.6476 15.3563 17.6308 15.4431 17.6321C15.9289 17.6359 16.4148 17.6346 16.9007 17.6359C17.0289 17.6359 17.1611 17.6385 17.2531 17.5297C17.3321 17.4364 17.38 17.3276 17.3256 17.2032C17.2686 17.0736 17.1714 16.9894 17.0224 16.9868C16.81 16.9842 16.5975 16.9855 16.3863 16.9855C13.9013 16.9855 11.4151 16.9855 8.93009 16.9881C8.71372 16.9881 8.52975 16.9402 8.3976 16.7575C8.14366 16.4051 8.34577 15.9348 8.7798 15.9102C9.2216 15.8843 9.66599 15.8985 10.1091 15.8972C11.9152 15.8946 13.7212 15.8959 15.5286 15.8921C16.0183 15.8908 16.3876 15.6433 16.6947 15.2883C16.753 15.2209 16.8113 15.1976 16.8994 15.1989C17.748 15.2028 18.5966 15.2028 19.4452 15.2041C19.6629 15.2041 19.8494 15.0331 19.8339 14.8426C19.8184 14.6535 19.6111 14.5109 19.3999 14.542C19.3765 14.5459 19.3532 14.5498 19.3299 14.5498C18.6044 14.5498 17.8788 14.5498 17.1339 14.5498C17.3049 14.2091 17.4707 13.8813 17.634 13.5535C17.6599 13.5017 17.7026 13.5107 17.7428 13.5107C18.3375 13.5094 18.9309 13.5081 19.5255 13.5081C19.6072 13.5081 19.6849 13.5315 19.7704 13.5094C19.944 13.4628 20.0775 13.3164 20.0619 13.1622C20.0438 12.9899 19.8987 12.8655 19.7082 12.8655C19.1939 12.8681 18.6808 12.8733 18.1665 12.8772C18.1341 12.8772 18.1004 12.8772 18.068 12.8785C17.8892 12.8798 17.884 12.8785 17.9358 12.7126C18.112 12.1529 18.2325 11.5803 18.366 11.0102C18.3893 10.9117 18.375 10.8703 18.2546 10.8431C17.8451 10.7498 17.4876 10.5412 17.152 10.2912C17.0626 10.2238 16.9641 10.1616 16.8916 10.0774C16.7802 9.94911 16.7011 10.0113 16.6156 10.0994C16.3099 10.4129 16.0028 10.7265 15.6996 11.0426C15.4768 11.2745 15.2513 11.5051 15.0583 11.7681C15.0803 11.8109 15.1244 11.7902 15.1555 11.7915C15.3537 11.7966 15.5519 11.7979 15.7502 11.8005C16.0754 11.8044 16.2969 12.0143 16.2943 12.3201C16.293 12.6038 16.0533 12.8383 15.7527 12.8448C15.5882 12.8487 15.4224 12.8474 15.2578 12.8422C15.1697 12.8396 15.1257 12.8577 15.1101 12.9601C15.0751 13.1868 15.0168 13.411 14.9728 13.6364C14.9598 13.7051 14.9417 13.7323 14.8627 13.709C14.4209 13.5768 13.9778 13.4472 13.5334 13.3242C13.4505 13.3008 13.4582 13.2594 13.4751 13.2011C13.6124 12.7113 13.7873 12.2359 13.9868 11.7681C14.1993 11.2706 14.4403 10.7874 14.6994 10.3132C15.0687 9.63428 15.4923 8.99166 15.9976 8.40475C16.0805 8.30758 16.1712 8.31665 16.2749 8.31406C16.8618 8.30499 17.4422 8.35163 18.0084 8.52265C18.3258 8.61853 18.6251 8.75586 18.9088 8.92559C18.9594 8.95539 19.0047 8.96186 19.0656 8.95409C19.3999 8.91393 19.7303 8.90874 20.0554 9.02923C20.5685 9.21969 20.8458 9.60578 20.9831 10.1124C21.1373 10.6772 21.272 11.2486 21.434 11.8109C21.548 12.2035 21.9755 12.4004 22.35 12.2592C22.5028 12.2022 22.6078 12.0882 22.6868 11.9521C22.7335 11.8718 22.7762 11.8718 22.8514 11.912C23.1779 12.0869 23.4875 12.2799 23.7116 12.5857C23.9384 12.8966 24.0718 13.24 24.0602 13.6286C24.0576 13.7206 24.0861 13.7724 24.1638 13.8204C24.4255 13.9823 24.603 14.213 24.7015 14.5071C24.7339 14.6042 24.6898 14.7131 24.774 14.8076C25.0409 14.6068 25.3052 14.3917 25.5527 14.1559C25.9181 13.8074 26.2173 13.4123 26.4363 12.9562C26.4739 12.8785 26.4791 12.8292 26.4195 12.7476C26.2433 12.5105 26.0813 12.2618 25.9427 11.9988C25.9194 11.9534 25.9064 11.921 25.9492 11.8757C26.1759 11.6425 26.3871 11.395 26.6423 11.189C26.6967 11.145 26.7472 11.1139 26.8185 11.1605C27.1191 11.3548 27.4339 11.5272 27.7228 11.7396C27.7837 11.785 27.8071 11.829 27.7837 11.9068C27.3782 13.2503 26.9247 14.5731 26.1202 15.7418C25.966 15.9659 25.8053 16.1887 25.5942 16.3662C25.5449 16.3766 25.5048 16.3572 25.4607 16.3364C25.3247 16.2717 25.1886 16.2082 25.0487 16.1512C24.1314 15.7793 23.2673 15.3168 22.4821 14.7118C22.3526 14.5485 22.3241 14.5433 22.1582 14.6431C21.6944 14.9242 21.228 15.2015 20.7641 15.4852C20.2964 15.7716 19.8598 16.0994 19.5035 16.5217C19.3195 16.7394 19.1978 16.992 19.1045 17.2602C19.0786 17.3354 19.1161 17.3574 19.1667 17.369C19.5553 17.4597 19.922 17.6139 20.2874 17.7694C21.2979 18.2034 22.236 18.7553 23.0392 19.5172C23.3968 19.8553 23.7168 20.2233 23.9552 20.6586C24.1301 20.9786 24.1781 21.3116 24.064 21.6627C23.7181 21.4191 23.3541 21.2027 22.9978 20.9734C21.7579 20.1779 20.4027 19.6415 19.0047 19.2088C17.963 18.8862 16.9201 18.5727 15.9082 18.1645C15.7631 18.1101 15.6284 18.0065 15.4573 18.0453Z" fill="#292927"/>
<path d="M15.4578 18.0453C15.6288 18.0064 15.7636 18.1088 15.9061 18.1671C16.918 18.5765 17.9622 18.8887 19.0026 19.2113C20.4006 19.6453 21.7558 20.1804 22.9956 20.9759C23.3519 21.204 23.716 21.4216 24.0619 21.6652C23.9518 22.0901 23.6681 22.3635 23.2755 22.5268C22.8972 22.6848 22.4891 22.7133 22.0874 22.76C21.4124 22.8403 20.7348 22.9038 20.0611 23.0061C19.3926 23.1085 18.7331 23.2419 18.0853 23.4376C17.0734 23.7433 16.2209 24.3017 15.4695 25.0376C15.0834 25.416 14.81 25.872 14.5004 26.3281C14.4485 25.999 14.455 25.6867 14.49 25.3745C14.5988 24.4145 14.9059 23.5244 15.4423 22.7185C15.4889 22.6486 15.5498 22.5877 15.6081 22.5268C15.7351 22.3985 15.8828 22.3506 16.059 22.4166C16.2689 22.4957 16.4736 22.598 16.6912 22.6447C16.9244 22.6939 17.1667 22.7017 17.3973 22.5773C17.7575 22.3817 18.0996 22.1562 18.4571 21.9567C18.9702 21.6704 19.4781 21.3672 20.0378 21.1806C20.8268 20.9176 21.5873 20.9941 22.3051 21.4307C22.3686 21.4696 22.4178 21.5214 22.4813 21.5615C22.3906 21.3063 22.2118 21.1223 21.9967 20.9695C21.4163 20.5587 20.7802 20.5406 20.1194 20.7051C19.8668 20.7686 19.6258 20.8619 19.3965 20.985C19.3239 21.0239 19.2617 21.029 19.184 20.998C18.5932 20.7622 17.9804 20.5924 17.3662 20.4266C17.2341 20.3916 17.1421 20.4085 17.041 20.5095C16.848 20.7026 16.6601 20.9008 16.4477 21.0757C16.16 21.3115 15.8387 21.4359 15.4617 21.4346C13.8396 21.4294 12.2175 21.432 10.5954 21.432C8.80748 21.432 7.02084 21.432 5.2329 21.4359C5.03467 21.4359 4.85718 21.4035 4.7328 21.2312C4.6136 21.0679 4.59287 20.893 4.67709 20.7116C4.76001 20.5328 4.9077 20.4408 5.10334 20.4344C5.31064 20.4279 5.51794 20.4331 5.72523 20.4331C8.19595 20.4331 10.668 20.4331 13.1387 20.4331C13.4198 20.4331 13.6854 20.3838 13.8901 20.1701C14.1272 19.9213 14.2374 19.6285 14.1337 19.2903C14.0391 18.9807 13.8279 18.7747 13.5079 18.7008C13.4172 18.6801 13.3201 18.684 13.2268 18.684C12.6943 18.6827 12.1605 18.6918 11.628 18.6827C11.2056 18.6749 10.9763 18.2565 11.1875 17.895C11.3015 17.6993 11.4894 17.6592 11.6954 17.6592C12.3704 17.6592 13.0441 17.6592 13.7191 17.6592C14.0262 17.6592 14.3319 17.6592 14.639 17.6605C14.696 17.6605 14.7439 17.6527 14.7517 17.7421C14.8048 18.3679 15.1378 18.846 15.5964 19.2398C16.081 19.657 16.6498 19.8669 17.2989 19.8449C17.5295 19.8371 17.7614 19.8475 17.992 19.8462C18.1747 19.8462 18.312 19.727 18.3315 19.5559C18.3509 19.3901 18.2382 19.2295 18.0685 19.1893C18.005 19.175 17.9376 19.1724 17.8728 19.1724C17.5658 19.1699 17.2574 19.1971 16.9542 19.1647C16.2391 19.0882 15.748 18.6944 15.4578 18.0453Z" fill="#090909"/>
<path d="M25.3475 7.53523C25.4006 7.91225 25.3708 8.23744 25.0508 8.46806C25.0015 8.50304 24.9925 8.54839 25.0054 8.6041C25.0456 8.79326 25.0223 8.98112 24.986 9.16639C24.9471 9.36462 24.9756 9.55507 25.0171 9.74553C25.0313 9.81031 25.0197 9.87379 25.0352 9.93857C25.0857 10.1446 25.0702 10.1653 24.8603 10.1692C24.7981 10.1705 24.7683 10.1847 24.7359 10.2469C24.6219 10.4737 24.4924 10.6926 24.4004 10.9297C24.3537 11.0502 24.2501 11.0904 24.1076 11.036C23.9625 10.9815 23.8212 10.9142 23.6852 10.8403C23.5997 10.7937 23.5427 10.795 23.4611 10.8572C23.0594 11.1694 22.6513 11.4726 22.2445 11.7783C22.0592 11.917 21.9737 11.8949 21.9141 11.6708C21.7483 11.0528 21.5954 10.4309 21.436 9.81161C21.4179 9.74035 21.4464 9.7248 21.5125 9.71703C21.6951 9.695 21.8752 9.66002 22.0579 9.63929C22.1512 9.62892 22.1642 9.60042 22.1279 9.51621C21.9789 9.17805 21.9556 8.82306 22.0165 8.46288C22.1279 7.79694 22.6461 7.35514 23.3224 7.33441C23.6774 7.32404 24.013 7.40307 24.3447 7.51968C24.5001 7.57409 24.6595 7.61815 24.8188 7.65701C25.0028 7.70366 25.1816 7.68811 25.3475 7.53523Z" fill="#292927"/>
<path d="M10.9814 15.2414C9.99155 15.2414 9.00041 15.2337 8.01057 15.2453C7.56617 15.2505 7.38738 14.8502 7.47289 14.5651C7.53119 14.3695 7.7061 14.1803 8.03 14.179C9.31783 14.1764 10.6057 14.179 11.8922 14.179C12.5944 14.179 13.2979 14.179 14.0001 14.1777C14.3279 14.1777 14.5624 14.4019 14.5611 14.7193C14.5611 15.0134 14.3228 15.2414 14.0079 15.2414C12.9999 15.2427 11.9907 15.2414 10.9814 15.2414Z" fill="white"/>
<path d="M9.62754 11.1137C8.82556 11.1137 8.02488 11.1137 7.2229 11.1137C6.84717 11.1137 6.62303 10.9038 6.6321 10.5669C6.63728 10.3518 6.79794 10.1562 7.00783 10.1096C7.09981 10.0888 7.1931 10.0811 7.28897 10.0811C8.87739 10.0824 10.4671 10.0824 12.0555 10.0824C12.2304 10.0824 12.395 10.1031 12.5206 10.2417C12.6489 10.3829 12.7201 10.541 12.6528 10.7314C12.5802 10.9375 12.4429 11.0826 12.2162 11.1007C12.0283 11.1162 11.8391 11.1098 11.6513 11.1111C10.9776 11.1124 10.3026 11.1111 9.62884 11.1111C9.62754 11.1124 9.62754 11.1124 9.62754 11.1137Z" fill="white"/>
<path d="M13.2917 24.4116C12.7463 24.878 12.3174 25.3962 11.9145 25.9365C11.8795 25.9831 11.8394 25.9831 11.7914 25.9831C10.6228 25.9844 9.45285 25.987 8.28422 25.9844C7.96939 25.9844 7.74265 25.7784 7.72581 25.4986C7.70638 25.1811 7.92404 24.9492 8.26478 24.9428C8.59905 24.9363 8.93461 24.9428 9.26888 24.9428C9.71197 24.9428 10.1551 24.935 10.5982 24.9453C10.8508 24.9505 11.0698 24.8845 11.2226 24.6823C11.3976 24.4517 11.6139 24.3895 11.8964 24.4038C12.3239 24.4258 12.7541 24.4077 13.1829 24.4064C13.2062 24.4051 13.2282 24.4077 13.2917 24.4116Z" fill="#090909"/>
<path d="M13.7034 11.7988C13.5479 12.1422 13.4132 12.4622 13.2953 12.7874C13.2706 12.8534 13.2253 12.8457 13.1722 12.8457C12.1733 12.8444 11.1744 12.8444 10.1754 12.8444C9.93576 12.8444 9.69478 12.856 9.45509 12.8431C9.0392 12.8224 8.82413 12.4479 9.0094 12.0748C9.10787 11.8766 9.28796 11.8027 9.50044 11.8027C10.1184 11.8027 10.7351 11.804 11.3532 11.804C12.0748 11.8027 12.7952 11.8001 13.5168 11.7988C13.5686 11.7988 13.6243 11.7988 13.7034 11.7988Z" fill="white"/>
<path d="M14.861 22.8529C14.5824 23.0654 14.3129 23.2934 14.081 23.5552C13.8724 23.791 13.6379 23.8298 13.3477 23.8221C12.6649 23.8039 11.9821 23.8156 11.2993 23.813C11.0752 23.8117 10.9236 23.708 10.8485 23.515C10.7707 23.3168 10.8148 23.0939 10.9599 22.954C11.0558 22.862 11.175 22.8167 11.3019 22.8167C12.4563 22.8154 13.6107 22.8193 14.7638 22.8218C14.7949 22.8206 14.8312 22.8076 14.861 22.8529Z" fill="white"/>
<path d="M7.02877 17.6654C7.32028 17.6654 7.61309 17.668 7.9046 17.6641C8.2298 17.6602 8.46041 17.8598 8.47078 18.1642C8.48114 18.4376 8.23498 18.6838 7.93181 18.6864C7.31899 18.6915 6.70617 18.6902 6.09464 18.6864C5.77851 18.6838 5.55437 18.4674 5.55178 18.1759C5.54919 17.8805 5.76556 17.6758 6.09593 17.6706C6.40688 17.6654 6.71782 17.6693 7.02877 17.6693C7.02877 17.668 7.02877 17.6667 7.02877 17.6654Z" fill="#090909"/>
<path d="M22.4805 14.7114C23.2656 15.3178 24.1311 15.7803 25.0471 16.1508C25.187 16.2078 25.323 16.2713 25.4591 16.3361C25.5031 16.3568 25.5433 16.3763 25.5925 16.3659C25.1663 16.7429 24.7348 16.7779 24.2192 16.4773C23.6815 16.1638 23.2604 15.7207 22.8627 15.2517C22.7202 15.0833 22.5919 14.9032 22.4805 14.7114Z" fill="#090909"/>
<path d="M5.57634 15.9033C5.6463 15.9033 5.71756 15.9033 5.78752 15.9033C6.09588 15.9059 6.3239 16.1365 6.33038 16.4488C6.33556 16.7144 6.10624 16.9554 5.8225 16.9696C5.63982 16.9787 5.45585 16.9774 5.27317 16.9696C4.99979 16.9566 4.7912 16.7286 4.78343 16.4475C4.77565 16.1624 4.97 15.9357 5.25244 15.9098C5.35997 15.8994 5.4688 15.9085 5.57634 15.9085C5.57634 15.9072 5.57634 15.9059 5.57634 15.9033Z" fill="#292927"/>
<path d="M6.44009 11.8044C6.51135 11.8044 6.58131 11.8031 6.65257 11.8044C6.93242 11.8109 7.12028 11.9871 7.1449 12.2656C7.16952 12.5468 7.00757 12.7787 6.74197 12.8266C6.54244 12.8629 6.33774 12.8629 6.13692 12.8447C5.87002 12.8214 5.68216 12.5804 5.68864 12.3006C5.69512 12.0298 5.89205 11.8264 6.1719 11.807C6.2613 11.8005 6.35069 11.8057 6.44009 11.8057V11.8044Z" fill="#292927"/>
<path d="M8.6897 24.2535C8.31786 24.2548 8.13259 24.146 8.0406 23.8882C7.9227 23.5591 8.12481 23.2184 8.47204 23.1769C8.62492 23.1588 8.78298 23.1562 8.93716 23.1652C9.1911 23.1808 9.39839 23.4088 9.41394 23.6744C9.42949 23.9309 9.24033 24.1823 8.99157 24.2328C8.88404 24.2548 8.7765 24.2574 8.6897 24.2535Z" fill="#292927"/>
<path d="M21.7275 10.9398C21.7275 10.9398 22.3676 10.8932 23.0659 10.064C23.0659 10.064 22.9713 11.1575 21.9206 11.699L21.7275 10.9398Z" fill="#090909"/>
<path d="M23.0753 10.1162C23.0377 10.3442 22.8382 11.2162 21.9209 11.6994C21.9209 11.6994 22.009 11.9663 22.1412 11.8562C22.1412 11.8562 23.5197 10.7847 23.5948 10.7692C23.5948 10.7705 23.096 10.3339 23.0753 10.1162Z" fill="#090909"/>
</svg>
