<svg width="77" height="81" viewBox="0 0 77 81" fill="none" xmlns="http://www.w3.org/2000/svg">
<path d="M5.87876 52.2506C6.64231 52.2506 7.40944 52.2577 8.17299 52.247C9.02257 52.2362 9.62839 52.7596 9.65707 53.5554C9.68216 54.2724 9.04049 54.914 8.24826 54.9212C6.64589 54.9355 5.04352 54.9319 3.43756 54.9212C2.60949 54.9176 2.0216 54.3476 2.01801 53.5841C2.01084 52.8098 2.57722 52.2757 3.44114 52.2613C4.25488 52.2506 5.06861 52.2577 5.88235 52.2577C5.87876 52.2577 5.87876 52.2542 5.87876 52.2506Z" fill="#C4ED18"/>
<path d="M51.8857 3.47667C51.7961 3.47667 51.6993 3.4695 51.599 3.45158C51.6778 3.83156 51.6384 4.18645 51.4807 4.51983C51.6707 4.57001 51.8822 4.63454 52.0829 4.76C52.3589 4.93207 52.5919 5.24394 52.6887 5.57374C52.7783 5.87485 52.8465 6.17955 52.911 6.4735C52.9719 6.74594 53.0329 7.00763 53.1045 7.26215C53.3125 7.98985 53.0759 8.4702 52.4019 8.68887C52.3553 8.71037 52.2621 8.81075 52.2406 8.8681C52.0256 9.44883 51.8356 10.0833 51.6635 10.8074C51.4484 11.6965 50.8175 11.7897 50.5558 11.7897C50.4196 11.7897 50.2798 11.7681 50.1292 11.7251C49.8962 11.657 49.674 11.5817 49.4589 11.5029C49.3263 11.4563 49.1936 11.4097 49.061 11.3667C48.9965 11.3451 48.9606 11.3416 48.9427 11.3416C48.9355 11.3523 48.9248 11.3702 48.9104 11.4025C48.828 11.5961 48.7419 11.7861 48.6595 11.9796C48.3691 12.6464 48.068 13.3311 47.8027 14.0122C47.688 14.3097 47.4729 14.8582 46.9101 14.8582C46.8169 14.8582 46.7309 14.8438 46.652 14.8152C46.7883 14.9478 46.9317 15.0697 47.0822 15.188L47.1539 15.2417C47.2328 15.3027 47.3582 15.4031 47.4192 15.4282C47.9246 15.4497 48.7634 15.6719 48.9319 16.8943C48.9785 17.2313 49.018 17.5682 49.0502 17.9052C49.0968 17.2277 48.9785 16.4641 48.6989 15.5859L48.3548 14.514L49.4302 14.851C49.527 14.8797 49.6202 14.9012 49.7062 14.9227C49.9249 14.9729 50.1758 15.0302 50.3802 15.2202C50.4626 15.2955 50.5451 15.3708 50.6275 15.4461C51.0899 15.8655 51.5703 16.3028 51.9539 16.8334C52.3374 17.3711 52.6565 17.959 52.9648 18.5289C53.0974 18.7727 53.2336 19.0272 53.377 19.2781L53.6781 19.8051L53.0149 20.1528C54.542 20.6045 55.7788 21.5509 56.7 22.9668C56.7502 23.0421 56.8147 23.1389 56.8721 23.2285C56.9187 23.1855 56.9689 23.1353 57.0191 23.0887L57.141 22.9704C57.8651 22.2822 58.6609 21.6763 59.4997 21.1673C60.6791 20.4504 61.5036 19.6832 62.0951 18.7476C62.3424 18.3533 62.3101 18.1454 62.156 17.9016C61.4928 16.837 61.1487 15.6325 61.0985 14.2237C61.0913 14.0194 61.1451 13.8473 61.1881 13.7075C61.1989 13.6716 61.2132 13.6322 61.2204 13.5964L61.3674 12.9619L61.9839 13.1805C62.0054 13.1877 62.052 13.1985 62.0915 13.2092C62.2707 13.2522 62.5431 13.3167 62.7331 13.5498C62.8837 13.7326 62.9876 13.9333 63.0773 14.109C63.131 14.2129 63.1812 14.3133 63.235 14.3958C63.235 14.3958 63.3139 14.5212 63.3354 14.5463C63.3425 14.5427 63.3461 14.5391 63.3497 14.532C63.5254 14.1161 63.6222 13.6358 63.7118 13.1698C63.7548 12.9511 63.7835 12.7217 63.8121 12.4851C63.8516 12.1553 63.8946 11.8147 63.9806 11.4706C64.0595 11.1587 64.2638 10.9365 64.4251 10.7608C64.4789 10.7035 64.5291 10.6497 64.5649 10.6031L64.651 10.492C61.2777 7.19045 57.3381 4.46247 52.9898 2.46936C52.8572 2.97839 52.6063 3.47667 51.8857 3.47667Z" fill="#CCFF0C"/>
<path d="M68.6733 15.0625C68.659 15.0876 68.6446 15.1127 68.6375 15.1306C68.5299 15.3708 68.426 15.6145 68.322 15.8583C68.1607 16.2347 67.9922 16.6254 67.8166 17.009C67.77 17.113 67.7233 17.2205 67.6803 17.3316C67.5262 17.7044 67.3541 18.1274 67.0351 18.4572C66.0349 19.4896 65.3539 20.7156 64.6297 22.0133C64.4541 22.3287 64.2713 22.655 64.0884 22.974C62.8732 25.0782 61.1812 26.763 59.5394 28.3905L59.4426 28.4873C59.0447 28.8816 58.5464 29.0895 57.9908 29.0895C57.7614 29.0895 57.5212 29.0537 57.281 28.982L57.005 28.8996C55.84 28.5554 54.6355 28.1969 53.4633 27.799C51.3662 27.0857 49.7818 25.8059 48.7458 23.9921L44.6843 33.3805L45.8995 33.4557C47.6489 33.5633 49.4126 33.9361 51.1368 34.5634C51.3591 34.6459 51.524 34.7857 51.653 34.8968C51.6924 34.9291 51.7283 34.9649 51.7677 34.9936L52.2947 35.3843L51.8466 35.8647C51.8143 35.9005 51.7821 35.9364 51.7534 35.9722C51.6638 36.0798 51.5526 36.2124 51.4021 36.3235C51.9649 36.1837 52.5313 36.0439 53.0905 35.9041C53.345 35.8396 53.5995 35.8073 53.8469 35.8073C54.3487 35.8073 54.8327 35.94 55.2772 36.2052L55.5102 36.3414C56.8365 37.1265 58.2095 37.9367 59.5466 38.7576C59.9517 39.0049 60.2958 39.349 60.5503 39.6179C61.6867 40.8295 61.8695 42.3351 61.0486 43.7475C60.6543 44.425 60.2492 44.9699 59.8119 45.4108C57.1878 48.0456 54.8721 50.3326 52.732 52.4046C51.6351 53.4657 50.4987 54.62 49.685 56.0252C49.5344 56.2833 49.5165 56.4733 49.6097 56.7672C49.7674 57.2655 49.8571 57.7745 49.9467 58.2692C49.9897 58.5202 50.0327 58.7532 50.0829 58.9898C50.3697 60.334 50.954 61.4381 51.8717 62.363C52.1871 62.682 52.5922 63.1086 52.9292 63.589C53.2303 64.0227 53.3092 64.5031 53.1407 64.9081C52.9794 65.3025 52.6209 65.5677 52.1334 65.6573C51.9111 65.6968 51.6781 65.7183 51.4487 65.7183C51.0185 65.7183 50.6134 65.643 50.2765 65.5032L50.2621 65.496C49.2154 65.0587 48.1328 64.6106 47.2044 63.9188C45.6235 62.743 44.0857 61.4632 42.6016 60.2229C42.279 59.9541 41.9563 59.6852 41.6337 59.4163C41.2573 59.1045 41.0171 58.66 40.8809 58.3445C40.6658 57.8426 40.5762 57.0934 41.3864 56.3872C41.6731 56.1363 41.9348 55.846 42.2073 55.5377C42.451 55.2652 42.7019 54.982 42.9816 54.7203C43.2898 54.43 43.8025 54.1181 44.3151 54.1109C44.86 54.1002 45.2507 53.9281 45.5912 53.5481C47 51.9673 48.2404 50.1462 49.3803 47.9739C49.5093 47.7265 49.6241 47.4613 49.7424 47.1852C49.9144 46.7873 50.0901 46.3787 50.3302 45.9879C50.7532 45.3033 51.23 44.6473 51.6925 44.0163C51.8 43.8694 51.9075 43.7188 52.0151 43.5718C51.9577 43.5718 51.9004 43.5754 51.8466 43.579C51.1619 43.6077 50.4665 43.6471 49.7925 43.6794C48.3945 43.7511 46.9463 43.8264 45.5196 43.8514C45.4443 43.8514 45.369 43.855 45.2973 43.855C44.3796 43.855 43.4619 43.7618 42.5729 43.6686C42.4044 43.6507 42.2395 43.6328 42.071 43.6184C42.0316 43.6149 41.9958 43.6113 41.9599 43.6113C41.7735 43.6113 41.6516 43.6543 41.4545 43.9088C41.2215 44.2063 40.992 44.5039 40.759 44.805C39.447 46.5006 38.0884 48.2535 36.676 49.9204C36.1527 50.5406 35.5576 51.0926 34.9804 51.6267C34.579 51.9995 34.1631 52.3831 33.7867 52.781C33.396 53.1897 33.0447 53.627 32.6683 54.0894C32.3923 54.43 32.1055 54.7849 31.8044 55.1254C31.7399 55.2007 31.6717 55.2796 31.6072 55.3584C31.2702 55.7599 30.8867 56.2152 30.349 56.4159C28.2232 57.2153 26.4882 58.5668 24.6493 59.9971C24.4557 60.1476 24.2657 60.2982 24.0721 60.4452C22.5199 61.646 20.9785 62.9186 19.4837 64.1518C19.1252 64.4457 18.7667 64.7432 18.4082 65.0372C17.7594 65.5713 17.4404 66.0983 17.3794 66.7471C17.3328 67.2418 16.9672 67.6899 16.6732 67.9767C15.5154 69.0987 14.6013 70.063 14.2213 71.3893C14.103 71.8052 14.042 72.2461 13.9775 72.7121C13.9596 72.834 13.9417 72.9594 13.9238 73.0813C13.9166 73.1243 13.9166 73.153 13.9166 73.1674L13.9202 73.2283L13.8019 73.8986H13.7804C13.7875 74.0994 13.7015 74.3037 13.533 74.4148C19.964 78.5803 27.6318 81 35.8623 81C58.5823 81 77.0006 62.5816 77.0006 39.8616C77.0042 30.5593 73.8998 21.9631 68.6733 15.0625Z" fill="#CCFF0C"/>
<path d="M19.8698 13.3132H6.79275C6.03279 13.3132 5.4198 12.6966 5.4198 11.9402C5.4198 11.1802 6.03637 10.5673 6.79275 10.5673H19.8698C20.6298 10.5673 21.2428 11.1838 21.2428 11.9402C21.2464 12.6966 20.6298 13.3132 19.8698 13.3132Z" fill="white"/>
<path d="M18.2854 41.8368H2.423C1.66304 41.8368 1.05005 41.2203 1.05005 40.4639C1.05005 39.7039 1.66662 39.0909 2.423 39.0909H18.2854C19.0454 39.0909 19.6584 39.7075 19.6584 40.4639C19.6584 41.2239 19.0454 41.8368 18.2854 41.8368Z" fill="#CCFF0C"/>
<path d="M24.6447 48.1926H8.78225C8.02229 48.1926 7.4093 47.576 7.4093 46.8196C7.4093 46.0596 8.02588 45.4467 8.78225 45.4467H24.6447C25.4046 45.4467 26.0176 46.0632 26.0176 46.8196C26.0176 47.576 25.4011 48.1926 24.6447 48.1926Z" fill="white"/>
<path d="M5.39511 17.8694H4.25875C3.49879 17.8694 2.8858 17.2529 2.8858 16.4965C2.8858 15.7365 3.50238 15.1235 4.25875 15.1235H5.39511C6.15507 15.1235 6.76806 15.7401 6.76806 16.4965C6.76806 17.2529 6.15507 17.8694 5.39511 17.8694Z" fill="#CCFF0C"/>
<path d="M28.9258 41.0554H27.7894C27.0294 41.0554 26.4164 40.4388 26.4164 39.6824C26.4164 38.9224 27.033 38.3094 27.7894 38.3094H28.9258C29.6857 38.3094 30.2987 38.926 30.2987 39.6824C30.2987 40.4388 29.6857 41.0554 28.9258 41.0554Z" fill="white"/>
<path d="M8.91171 25.9744H7.77536C7.01539 25.9744 6.4024 25.3578 6.4024 24.6015C6.4024 23.8415 7.01898 23.2285 7.77536 23.2285H8.91171C9.67168 23.2285 10.2847 23.8451 10.2847 24.6015C10.2847 25.3578 9.67168 25.9744 8.91171 25.9744Z" fill="#CCFF0C"/>
<path d="M2.67779 50.4188H1.37295C0.612989 50.4188 0 49.8022 0 49.0458C0 48.2858 0.616574 47.6729 1.37295 47.6729H2.67779C3.43775 47.6729 4.05074 48.2894 4.05074 49.0458C4.05074 49.8058 3.43775 50.4188 2.67779 50.4188Z" fill="#CCFF0C"/>
<path d="M68.321 13.833C68.149 13.876 67.959 13.8903 67.8048 13.9692C67.6543 14.0481 67.5396 14.195 67.4069 14.3097C67.3603 14.2811 67.3101 14.2488 67.2635 14.2201C67.3603 13.8509 67.4858 13.4888 67.5396 13.1124C67.5826 12.797 67.6256 12.2306 67.5145 12.1912C67.0592 12.0263 67.0198 12.5281 66.837 12.7934C66.7366 12.9404 66.6326 13.0838 66.5322 13.2272C66.4821 13.2057 66.4319 13.1841 66.3817 13.1662C66.4713 12.6393 66.586 12.1123 66.6362 11.5818C66.6577 11.3703 66.543 11.1408 66.4928 10.9222C66.3136 11.0656 66.0698 11.1767 65.9659 11.3631C65.7651 11.7216 65.6432 12.1231 65.4855 12.5066C65.4246 12.4995 65.3636 12.4887 65.3027 12.4815C65.3027 12.2019 65.3385 11.9187 65.2919 11.6463C65.2489 11.4061 65.1163 11.1839 65.0231 10.9544C64.8582 11.1695 64.6037 11.3631 64.5427 11.6069C64.4065 12.1517 64.3886 12.7253 64.281 13.2809C64.1807 13.7935 64.0767 14.3169 63.8688 14.7901C63.7756 15.0016 63.4386 15.188 63.1913 15.2203C63.0658 15.2382 62.8687 14.9084 62.7396 14.7112C62.5711 14.4531 62.4636 14.1484 62.2736 13.9154C62.1768 13.7971 61.951 13.7864 61.7825 13.7254C61.7466 13.8832 61.6714 14.0445 61.6785 14.1986C61.7215 15.4067 62.0047 16.5502 62.6464 17.5862C62.9654 18.0988 62.8973 18.5541 62.5819 19.0523C61.8757 20.1708 60.9186 20.9809 59.7965 21.662C58.99 22.1531 58.2229 22.741 57.5346 23.3899C56.7746 24.1104 56.789 24.1857 56.1975 23.2787C55.2654 21.8448 54.0036 20.9307 52.3296 20.5759C52.1001 20.5293 51.8886 20.4074 51.523 20.2604C52.0858 19.9664 52.5052 19.7478 52.8601 19.5614C52.3833 18.7261 51.9926 17.8981 51.4692 17.1668C51.0606 16.5932 50.4978 16.1236 49.9744 15.6397C49.8346 15.5106 49.5837 15.5035 49.2431 15.3995C49.8202 17.1955 49.8489 18.7871 48.752 20.221C48.6946 20.2102 48.6337 20.1995 48.5764 20.1923C48.5871 19.988 48.6194 19.78 48.6014 19.5757C48.5262 18.7046 48.4616 17.8335 48.3433 16.9696C48.2681 16.4355 48.0243 16.0268 47.3683 16.0089C47.146 16.0017 46.913 15.7974 46.7159 15.6469C45.6978 14.8582 45.0454 13.8115 44.5973 12.6213C44.5471 12.4923 44.5328 12.3489 44.4754 12.0872C44.6582 12.227 44.7407 12.2736 44.8052 12.3381C45.3716 12.9009 45.9093 13.496 46.5044 14.0266C46.9381 14.4137 47.0421 14.3313 47.2536 13.7935C47.6013 12.9081 47.992 12.037 48.372 11.1624C48.5441 10.768 48.8524 10.6784 49.2395 10.8039C49.5908 10.9186 49.9385 11.0512 50.2934 11.1552C50.7272 11.2807 50.9853 11.1301 51.0964 10.6605C51.2613 9.98298 51.4549 9.30905 51.6951 8.65663C51.7775 8.43796 52.0105 8.1942 52.2256 8.12251C52.6522 7.9827 52.645 7.76403 52.5446 7.41273C52.3869 6.8571 52.2901 6.28354 52.1288 5.7279C52.075 5.54508 51.9352 5.34792 51.7775 5.24755C51.5696 5.1185 51.3079 5.07549 51.0642 5.00379C50.7594 4.91418 50.6196 4.76003 50.8383 4.45891C51.1215 4.07176 51.1072 3.66669 50.9279 3.24011C50.867 3.09672 50.8634 2.92824 50.8204 2.71315C51.0068 2.73466 51.1 2.73466 51.186 2.75617C52.2041 3.01427 52.3188 2.94257 52.498 1.91017C52.5984 1.32586 52.3941 1.01399 51.6771 0.777396C49.874 0.185916 48.0135 0.0389442 46.1316 0.146486C45.2641 0.196672 44.5686 0.623255 44.1277 1.39039C43.4466 2.57335 43.0559 3.81366 43.4394 5.1902C43.6115 5.81035 43.8445 6.41618 43.952 7.0435C44.0345 7.50593 44.0954 8.04722 43.9305 8.45588C43.4179 9.72488 41.9518 10.8505 40.1487 10.0152C39.3994 9.66752 38.5033 9.5313 37.668 9.50979C36.7216 9.4847 35.8183 9.80016 34.8074 9.6496C33.7212 9.48829 32.5598 9.76073 31.4413 9.91129C30.1114 10.0905 28.7851 10.3199 27.4659 10.5745C26.9855 10.6677 26.4801 10.8146 26.0786 11.0763C23.451 12.7934 21.189 14.9371 19.0238 17.1954C18.6905 17.5432 18.2173 17.8084 17.7584 17.9841C16.6113 18.4178 15.4355 18.7727 14.2777 19.1742C13.6145 19.4036 13.5822 19.565 14.0554 20.1206C13.7901 20.2891 13.5141 20.4325 13.2847 20.6296C13.1664 20.7336 13.1341 20.9379 13.0624 21.0956C13.2202 21.1315 13.3779 21.2032 13.5356 21.196C13.7041 21.1888 13.869 21.11 14.0339 21.0634C13.7901 21.3717 13.4854 21.5401 13.2166 21.7588C13.084 21.8664 13.0194 22.0635 12.9262 22.2177C13.1198 22.2607 13.317 22.3503 13.5034 22.3324C13.7866 22.3037 14.059 22.1997 14.3386 22.128C14.3565 22.1746 14.3745 22.2212 14.3924 22.2678C14.206 22.3969 13.9945 22.5008 13.8403 22.6622C13.6288 22.8808 13.2489 23.2536 13.3098 23.3684C13.532 23.7878 13.9156 23.4795 14.2311 23.3899C14.3995 23.3433 14.5501 23.2429 14.715 23.1891C15.5108 22.9346 16.3066 22.6729 17.1132 22.4542C17.3283 22.3969 17.5828 22.4829 17.8194 22.5044C17.7979 22.7446 17.805 22.9955 17.7441 23.2285C17.6401 23.6193 17.4752 23.9957 17.3749 24.3864C17.3498 24.4832 17.4394 24.6696 17.5254 24.7126C17.6079 24.7556 17.8086 24.7055 17.8696 24.6266C18.4646 23.8953 19.2318 23.268 19.2927 22.2105C19.3142 21.8018 19.4182 21.4003 19.4612 20.9953C19.5257 20.3823 19.7874 19.9019 20.2462 19.4825C21.4471 18.3748 22.7986 17.5109 24.2575 16.7832C25.7345 16.0483 27.197 15.274 28.6309 14.4495C29.079 14.195 29.4375 14.0839 29.9322 14.2596C31.4055 14.7865 32.9075 15.1988 34.4848 15.231C34.9687 15.2418 35.1695 15.4784 35.2519 15.9265C35.5459 17.5324 35.9115 19.1276 36.1481 20.7407H40.8226C41.5825 20.7407 42.1955 21.3573 42.1955 22.1137C42.1955 22.8737 41.579 23.4866 40.8226 23.4866H36.3775C36.3775 23.9455 36.356 24.4008 36.3058 24.8596H36.8041C37.478 24.8596 38.0229 25.2575 38.0229 25.7522C38.0229 26.2433 37.478 26.6448 36.8041 26.6448H35.9617C35.3989 28.7956 34.4525 30.7852 33.4022 32.7281H36.0513C36.8113 32.7281 37.4243 33.3446 37.4243 34.101C37.4243 34.861 36.8077 35.474 36.0513 35.474H32.1834C31.9253 36.3737 31.7962 37.3022 31.8393 38.2808C31.8679 38.944 31.9002 39.6072 31.8679 40.2703C31.8464 40.6683 31.7962 41.1163 31.5955 41.4426C29.7852 44.4035 28.4983 47.6011 27.2472 50.8166C27.0393 51.3543 26.7059 51.7343 26.1718 51.9781C24.2719 52.842 22.6767 54.0859 21.4615 55.803C20.956 56.5199 20.4398 57.2405 19.8376 57.8714C18.565 59.2121 17.2566 60.5205 15.9051 61.7823C15.5825 62.0834 15.0484 62.2734 14.5931 62.3057C13.7435 62.3702 12.8832 62.2591 12.03 62.2627C11.1231 62.2662 10.8112 62.4777 10.7037 63.3918C10.5926 64.331 10.6212 65.2917 10.6248 66.2417C10.6284 66.9622 10.7539 67.6863 10.7109 68.3997C10.6141 70.0415 10.5101 71.6761 11.2091 73.2319C11.2342 73.2857 11.2486 73.3323 11.2557 73.3753L11.4314 73.5079C12.0444 73.4578 12.6681 73.4076 13.3026 73.361L13.3313 73.1997C13.3277 73.1423 13.3313 73.0778 13.3421 73.0061C13.4281 72.4146 13.4926 71.8088 13.6539 71.2388C14.0877 69.7153 15.1631 68.6327 16.26 67.5645C16.5002 67.3315 16.7619 67.0052 16.7941 66.697C16.8838 65.7793 17.3749 65.134 18.0345 64.5891C19.9164 63.0405 21.7841 61.474 23.7091 59.9864C25.7237 58.427 27.6953 56.7888 30.1365 55.8711C30.6204 55.6883 30.9897 55.1613 31.3589 54.7419C32.04 53.9712 32.6458 53.1252 33.3556 52.3796C34.2804 51.4045 35.3594 50.5657 36.2234 49.544C37.8688 47.5939 39.4209 45.565 40.9839 43.5504C41.2922 43.1525 41.6112 42.984 42.1203 43.0342C43.2459 43.1453 44.375 43.2851 45.5006 43.2672C47.6049 43.2313 49.7091 43.0844 51.8098 42.9947C52.2184 42.9768 52.6271 42.9912 53.0393 42.9912C53.0573 43.0557 53.0752 43.1202 53.0967 43.1847C52.9246 43.3819 52.731 43.5683 52.5805 43.7798C51.9818 44.6114 51.3581 45.4288 50.8204 46.2999C50.444 46.9093 50.2253 47.6119 49.8884 48.2499C48.8165 50.2932 47.5583 52.2147 46.0168 53.9425C45.5652 54.4479 45.0167 54.6881 44.3141 54.6989C43.9951 54.7061 43.6187 54.9211 43.3713 55.1506C42.8049 55.6811 42.3425 56.3263 41.7582 56.8318C41.3137 57.2189 41.1954 57.624 41.4069 58.1151C41.5395 58.427 41.7367 58.7532 41.9948 58.9647C43.8266 60.481 45.6369 62.0261 47.5439 63.4456C48.4186 64.098 49.4725 64.5354 50.4942 64.9584C50.9458 65.1448 51.5302 65.1663 52.0213 65.0731C52.6486 64.9584 52.8099 64.4422 52.4407 63.9152C52.1539 63.503 51.8062 63.1266 51.4513 62.7645C50.4332 61.7357 49.8059 60.5061 49.5048 59.1009C49.3507 58.3768 49.2682 57.6348 49.0495 56.9322C48.9026 56.4697 48.9456 56.1184 49.175 55.7205C50.0031 54.2831 51.1394 53.1144 52.3224 51.9709C54.7026 49.6659 57.0578 47.3323 59.3951 44.9843C59.8431 44.5362 60.2195 43.9913 60.5386 43.4428C61.2376 42.2384 61.0727 41.0231 60.1192 40.0087C59.8539 39.7255 59.5635 39.4459 59.2373 39.2451C57.8285 38.3776 56.4018 37.5388 54.9751 36.6964C54.4302 36.3737 53.8459 36.3021 53.2257 36.4598C52.0177 36.7645 50.806 37.0584 49.598 37.356C49.408 37.4026 49.218 37.4384 49.0244 37.4778C48.9993 37.4169 48.9707 37.356 48.9456 37.2986C49.6446 36.8183 50.3436 36.3451 51.0355 35.854C51.1824 35.75 51.29 35.5887 51.4154 35.4561C51.2541 35.3378 51.1107 35.1729 50.9315 35.1048C49.2933 34.5097 47.6013 34.1369 45.8591 34.0329C45.1709 33.9899 44.479 33.9469 43.8122 33.9075C45.429 30.165 47.0277 26.4727 48.6624 22.6944C48.7986 22.9095 48.9169 23.0565 48.9958 23.2214C49.978 25.2217 51.5624 26.5301 53.6451 27.2399C54.8998 27.6664 56.1688 28.0393 57.4414 28.4156C58.0185 28.5877 58.5813 28.5053 59.0187 28.0679C60.6927 26.4046 62.3704 24.7556 63.5677 22.6801C64.4889 21.0813 65.2883 19.4001 66.6004 18.045C66.923 17.7116 67.07 17.2026 67.2707 16.7617C67.5539 16.1451 67.812 15.5142 68.0844 14.8905C68.1633 14.7112 68.2995 14.5499 68.3389 14.3671C68.3927 14.2022 68.3354 14.0158 68.321 13.833Z" fill="white"/>
<path d="M29.6931 29.1291C30.4531 29.1291 31.0661 28.5125 31.0661 27.7561C31.0661 26.9962 30.4495 26.3832 29.6931 26.3832H13.8307C13.0708 26.3832 12.4578 26.9998 12.4578 27.7561C12.4578 28.5161 13.0743 29.1291 13.8307 29.1291H29.6931Z" fill="white"/>
<path d="M26.9864 35.4847C27.7464 35.4847 28.3594 34.8681 28.3594 34.1117C28.3594 33.3518 27.7428 32.7388 26.9864 32.7388H11.124C10.364 32.7388 9.75104 33.3553 9.75104 34.1117C9.75104 34.8717 10.3676 35.4847 11.124 35.4847H26.9864Z" fill="#CCFF0C"/>
<path d="M9.19517 66.256L9.19159 65.8366C9.18801 65.4781 9.18801 65.1161 9.19159 64.7468H3.47036C2.7104 64.7468 2.09741 65.3634 2.09741 66.1198C2.09741 66.8797 2.71399 67.4927 3.47036 67.4927H9.2597C9.25253 67.4174 9.24895 67.3457 9.24536 67.2705C9.22385 66.9478 9.19517 66.6109 9.19517 66.256Z" fill="white"/>
<path d="M15.1567 17.3747C15.8844 17.1345 16.5691 16.9086 17.2466 16.6505C17.562 16.5323 17.8381 16.3674 17.985 16.2132C18.3256 15.8583 18.6841 15.4891 19.0533 15.1199H12.2351C11.4752 15.1199 10.8622 15.7364 10.8622 16.4928C10.8622 17.2492 11.4788 17.8658 12.2351 17.8658H13.6977C13.7371 17.8514 13.773 17.8371 13.8052 17.8263C14.2533 17.6722 14.705 17.5252 15.1567 17.3747Z" fill="white"/>
<path d="M28.0979 17.8695C28.8578 17.8695 29.4708 17.2529 29.4708 16.4965C29.4708 16.2241 29.3884 15.9731 29.2522 15.7581C28.0083 16.4678 26.6855 17.1776 25.309 17.8695H28.0979Z" fill="#CCFF0C"/>
<path d="M18.6624 57.0289H12.7583C11.9984 57.0289 11.3854 57.6455 11.3854 58.4019C11.3854 59.1618 12.0019 59.7748 12.7583 59.7748H15.9416C16.8306 58.9145 17.7303 58.0076 18.6624 57.0289Z" fill="#CCFF0C"/>
<path d="M13.3067 73.3718C13.3067 73.3718 13.2278 74.6085 12.493 74.6192C12.493 74.6192 11.7151 74.8092 11.2598 73.3861L12.2815 72.6907L13.3067 73.3718Z" fill="white"/>
</svg>
