<svg width="22" height="22" viewBox="0 0 22 22" fill="none" xmlns="http://www.w3.org/2000/svg">
<mask id="path-1-inside-1_792_3159" fill="white">
<path d="M17.4933 4.20723C17.4879 4.18132 17.4753 4.15747 17.4569 4.13848C17.4384 4.11949 17.415 4.10614 17.3892 4.1C15.6733 3.68047 11.7086 5.17549 9.56054 7.32266C9.17742 7.70268 8.82815 8.11538 8.5167 8.55606C7.85429 8.49746 7.19189 8.54639 6.62734 8.79248C5.03447 9.49355 4.5707 11.3229 4.4415 12.1098C4.43417 12.1528 4.43694 12.197 4.44958 12.2388C4.46222 12.2807 4.48439 12.319 4.51434 12.3508C4.5443 12.3826 4.58123 12.407 4.62222 12.4221C4.66321 12.4372 4.70715 12.4426 4.75058 12.4379L7.30849 12.1558C7.31032 12.3486 7.32196 12.5412 7.34336 12.7329C7.35623 12.866 7.41531 12.9904 7.51035 13.0845L8.50087 14.0727C8.59503 14.1676 8.71938 14.2266 8.85244 14.2396C9.04303 14.261 9.23459 14.2726 9.42636 14.2745L9.1457 16.8292C9.14102 16.8726 9.14646 16.9165 9.16159 16.9575C9.17673 16.9985 9.20115 17.0354 9.23294 17.0653C9.26472 17.0952 9.30302 17.1174 9.34481 17.1301C9.3866 17.1427 9.43076 17.1455 9.47382 17.1383C10.2593 17.0123 12.0918 16.5485 12.7888 14.9557C13.0349 14.3911 13.0852 13.7319 13.0284 13.0728C13.4702 12.7613 13.8839 12.4119 14.265 12.0286C16.4198 9.88467 17.9063 6.0084 17.4933 4.20723ZM12.1152 9.471C11.9185 9.27436 11.7844 9.0238 11.7301 8.75099C11.6758 8.47818 11.7036 8.19538 11.81 7.93837C11.9164 7.68135 12.0966 7.46167 12.3279 7.30711C12.5592 7.15255 12.8311 7.07005 13.1093 7.07005C13.3874 7.07005 13.6594 7.15255 13.8906 7.30711C14.1219 7.46167 14.3022 7.68135 14.4086 7.93837C14.515 8.19538 14.5428 8.47818 14.4884 8.75099C14.4341 9.0238 14.3001 9.27436 14.1033 9.471C13.9728 9.60166 13.8179 9.70531 13.6473 9.77603C13.4768 9.84676 13.2939 9.88316 13.1093 9.88316C12.9246 9.88316 12.7418 9.84676 12.5712 9.77603C12.4007 9.70531 12.2457 9.60166 12.1152 9.471Z"/>
</mask>
<path d="M17.4933 4.20723L16.0242 4.51052L16.0275 4.52657L16.0312 4.54254L17.4933 4.20723ZM17.3892 4.1L17.033 5.55711L17.0413 5.55908L17.3892 4.1ZM9.56054 7.32266L10.6169 8.38762L10.621 8.38353L9.56054 7.32266ZM8.5167 8.55606L8.38453 10.0502L9.24378 10.1262L9.74164 9.4218L8.5167 8.55606ZM6.62734 8.79248L6.02794 7.41743L6.02308 7.41958L6.62734 8.79248ZM4.4415 12.1098L5.92027 12.3614L5.92168 12.3528L4.4415 12.1098ZM4.75058 12.4379L4.91343 13.929L4.91503 13.9288L4.75058 12.4379ZM7.30849 12.1558L8.80842 12.1416L8.79272 10.483L7.14404 10.6648L7.30849 12.1558ZM7.34336 12.7329L8.83639 12.5885L8.83532 12.5775L8.83409 12.5665L7.34336 12.7329ZM7.51035 13.0845L8.56976 12.0225L8.56559 12.0184L7.51035 13.0845ZM8.50087 14.0727L9.56577 13.0162L9.56028 13.0107L8.50087 14.0727ZM8.85244 14.2396L9.01919 12.7489L9.00884 12.7478L8.99848 12.7468L8.85244 14.2396ZM9.42636 14.2745L10.9174 14.4383L11.0984 12.7911L9.44128 12.7746L9.42636 14.2745ZM9.1457 16.8292L7.65467 16.6654L7.65434 16.6684L9.1457 16.8292ZM9.47382 17.1383L9.23627 15.6572L9.22425 15.6592L9.47382 17.1383ZM12.7888 14.9557L14.163 15.557L14.1638 15.5551L12.7888 14.9557ZM13.0284 13.0728L12.164 11.8468L11.46 12.3433L11.534 13.2016L13.0284 13.0728ZM14.265 12.0286L13.207 10.9653L13.2013 10.971L14.265 12.0286ZM12.1152 9.471L13.1766 8.41109L13.1755 8.40999L12.1152 9.471ZM14.1033 9.471L13.043 8.40999L13.0419 8.41109L14.1033 9.471ZM18.9623 3.90394C18.8993 3.59871 18.7505 3.3178 18.5336 3.09412L16.3801 5.18283C16.2 4.99714 16.0766 4.76393 16.0242 4.51052L18.9623 3.90394ZM18.5336 3.09412C18.3166 2.87043 18.0404 2.71321 17.7372 2.64092L17.0413 5.55908C16.7896 5.49907 16.5603 5.36855 16.3801 5.18283L18.5336 3.09412ZM17.7455 2.64292C17.0268 2.4672 16.2217 2.51646 15.4821 2.64767C14.7157 2.78365 13.8925 3.03102 13.0798 3.35612C11.4709 3.99972 9.75367 5.00872 8.5001 6.26178L10.621 8.38353C11.5155 7.48943 12.8546 6.67733 14.1941 6.14152C14.8556 5.87691 15.4795 5.69499 16.0062 5.60154C16.5598 5.50333 16.8938 5.52304 17.033 5.55708L17.7455 2.64292ZM8.50419 6.2577C8.05919 6.69911 7.65351 7.17846 7.29175 7.69031L9.74164 9.4218C10.0028 9.0523 10.2956 8.70626 10.6169 8.38761L8.50419 6.2577ZM8.64886 7.06189C7.84947 6.99118 6.90793 7.03385 6.02795 7.41744L7.22673 10.1675C7.47585 10.0589 7.85912 10.0037 8.38453 10.0502L8.64886 7.06189ZM6.02308 7.41958C4.81565 7.951 4.08428 8.89249 3.65191 9.73234C3.22234 10.5667 3.03974 11.3891 2.96132 11.8667L5.92168 12.3528C5.97246 12.0435 6.08634 11.5578 6.31918 11.1055C6.54921 10.6587 6.84616 10.335 7.2316 10.1654L6.02308 7.41958ZM2.96275 11.8582C2.9165 12.13 2.93395 12.4088 3.01372 12.6728L5.88543 11.8049C5.93993 11.9852 5.95184 12.1757 5.92025 12.3614L2.96275 11.8582ZM3.01372 12.6728C3.09349 12.9367 3.23341 13.1786 3.42247 13.3793L5.60621 11.3223C5.73537 11.4594 5.83094 11.6246 5.88543 11.8049L3.01372 12.6728ZM3.42247 13.3793C3.61154 13.58 3.8446 13.7341 4.1033 13.8295L5.14114 11.0147C5.31785 11.0799 5.47706 11.1852 5.60621 11.3223L3.42247 13.3793ZM4.1033 13.8295C4.362 13.9249 4.63931 13.959 4.91343 13.929L4.58773 10.9468C4.77499 10.9263 4.96443 10.9496 5.14114 11.0147L4.1033 13.8295ZM4.91503 13.9288L7.47294 13.6467L7.14404 10.6648L4.58614 10.9469L4.91503 13.9288ZM5.80856 12.17C5.81087 12.4137 5.82557 12.6571 5.85262 12.8994L8.83409 12.5665C8.81834 12.4254 8.80977 12.2835 8.80842 12.1416L5.80856 12.17ZM5.85032 12.8773C5.89694 13.3593 6.11092 13.8098 6.4551 14.1505L8.56559 12.0184C8.71971 12.171 8.81552 12.3727 8.83639 12.5885L5.85032 12.8773ZM6.45094 14.1464L7.44147 15.1346L9.56028 13.0107L8.56975 12.0226L6.45094 14.1464ZM7.436 15.1291C7.77625 15.4721 8.22557 15.6855 8.7064 15.7325L8.99848 12.7468C9.21318 12.7678 9.41382 12.8631 9.56575 13.0162L7.436 15.1291ZM8.68569 15.7303C8.9267 15.7573 9.16894 15.772 9.41145 15.7744L9.44128 12.7746C9.30024 12.7732 9.15936 12.7646 9.01919 12.7489L8.68569 15.7303ZM7.93533 14.1107L7.65467 16.6654L10.6367 16.993L10.9174 14.4383L7.93533 14.1107ZM7.65434 16.6684C7.62482 16.9422 7.65912 17.2191 7.75457 17.4774L10.5686 16.4376C10.6338 16.614 10.6572 16.8031 10.6371 16.99L7.65434 16.6684ZM7.75457 17.4774C7.85001 17.7357 8.00399 17.9684 8.20443 18.1572L10.2614 15.9734C10.3983 16.1023 10.5034 16.2612 10.5686 16.4376L7.75457 17.4774ZM8.20443 18.1572C8.40487 18.346 8.64633 18.4858 8.90988 18.5656L9.77974 15.6945C9.95971 15.749 10.1246 15.8445 10.2614 15.9734L8.20443 18.1572ZM8.90988 18.5656C9.17341 18.6455 9.45186 18.6632 9.7234 18.6174L9.22425 15.6592C9.40966 15.6279 9.5998 15.64 9.77974 15.6945L8.90988 18.5656ZM9.71137 18.6193C10.1915 18.5423 11.0153 18.3604 11.8503 17.9311C12.6908 17.499 13.6336 16.7667 14.163 15.557L11.4146 14.3544C11.2469 14.7375 10.925 15.0335 10.4786 15.263C10.0268 15.4953 9.54155 15.6082 9.23628 15.6572L9.71137 18.6193ZM14.1638 15.5551C14.5462 14.6779 14.5917 13.7417 14.5229 12.9439L11.534 13.2016C11.5788 13.7221 11.5235 14.1043 11.4137 14.3563L14.1638 15.5551ZM13.8928 14.2987C14.4057 13.937 14.8862 13.5313 15.3287 13.0862L13.2013 10.971C12.8817 11.2925 12.5346 11.5856 12.164 11.8468L13.8928 14.2987ZM15.323 13.0919C16.5771 11.8441 17.5875 10.1525 18.2333 8.55012C18.5593 7.74143 18.8069 6.91999 18.9432 6.14882C19.0758 5.39896 19.1214 4.59612 18.9553 3.87192L16.0312 4.54254C16.0717 4.71892 16.0864 5.07605 15.989 5.62658C15.8955 6.15578 15.7142 6.77512 15.4508 7.42864C14.918 8.75069 14.1077 10.0692 13.2071 10.9653L15.323 13.0919ZM13.1755 8.40999C13.1887 8.4231 13.1976 8.4398 13.2012 8.45799L10.259 9.04398C10.3713 9.60779 10.6483 10.1256 11.0549 10.532L13.1755 8.40999ZM13.2012 8.45799C13.2048 8.47618 13.203 8.49503 13.1959 8.51216L10.4241 7.36457C10.2042 7.89573 10.1467 8.48017 10.259 9.04398L13.2012 8.45799ZM13.1959 8.51216C13.1888 8.5293 13.1768 8.54394 13.1614 8.55425L11.4944 6.05998C11.0165 6.3794 10.644 6.83341 10.4241 7.36457L13.1959 8.51216ZM13.1614 8.55425C13.1459 8.56455 13.1278 8.57005 13.1093 8.57005V5.57005C12.5344 5.57005 11.9724 5.74055 11.4944 6.05998L13.1614 8.55425ZM13.1093 8.57005C13.0907 8.57005 13.0726 8.56455 13.0572 8.55425L14.7241 6.05998C14.2461 5.74055 13.6842 5.57005 13.1093 5.57005V8.57005ZM13.0572 8.55425C13.0418 8.54394 13.0297 8.5293 13.0227 8.51216L15.7945 7.36457C15.5746 6.83341 15.2021 6.3794 14.7241 6.05998L13.0572 8.55425ZM13.0227 8.51216C13.0156 8.49503 13.0137 8.47618 13.0173 8.45799L15.9595 9.04398C16.0718 8.48017 16.0144 7.89573 15.7945 7.36457L13.0227 8.51216ZM13.0173 8.45799C13.0209 8.4398 13.0299 8.4231 13.043 8.40999L15.1636 10.532C15.5703 10.1256 15.8472 9.60779 15.9595 9.04398L13.0173 8.45799ZM13.0419 8.41109C13.0507 8.40224 13.0612 8.39521 13.0728 8.39042L14.2218 11.1616C14.5745 11.0154 14.8949 10.8011 15.1647 10.5309L13.0419 8.41109ZM13.0728 8.39042C13.0844 8.38563 13.0968 8.38316 13.1093 8.38316V11.3832C13.4911 11.3832 13.8691 11.3079 14.2218 11.1616L13.0728 8.39042ZM13.1093 8.38316C13.1218 8.38316 13.1342 8.38563 13.1457 8.39042L11.9967 11.1616C12.3494 11.3079 12.7275 11.3832 13.1093 11.3832V8.38316ZM13.1457 8.39042C13.1573 8.39521 13.1678 8.40224 13.1766 8.41109L11.0538 10.5309C11.3236 10.8011 11.644 11.0154 11.9967 11.1616L13.1457 8.39042Z" fill="black" mask="url(#path-1-inside-1_792_3159)"/>
<path d="M3.93186 15.2203C3.76358 16.6369 4.97974 17.8098 6.36875 17.6477C6.23168 17.7424 5.99762 17.8536 5.64912 17.9602C5.22695 18.0893 4.72803 18.185 4.2367 18.2543C3.86786 18.3063 3.51395 18.3419 3.21586 18.3662C3.24007 18.0686 3.27571 17.7154 3.32766 17.3473C3.39693 16.8565 3.49263 16.3581 3.62167 15.9363C3.72732 15.5909 3.83758 15.3578 3.93186 15.2203ZM4.95347 14.0659L4.9535 14.0659L4.95347 14.0659Z" stroke="black" stroke-width="1.5"/>
</svg>
