<svg width="13" height="13" viewBox="0 0 13 13" fill="none" xmlns="http://www.w3.org/2000/svg">
<g clip-path="url(#clip0_454_2023)">
<path d="M11.9945 0.93441C11.9901 0.912817 11.9796 0.892943 11.9642 0.877117C11.9489 0.861291 11.9293 0.850169 11.9079 0.845054C10.4779 0.495445 7.17399 1.74129 5.38395 3.5306C5.06468 3.84729 4.77362 4.1912 4.51408 4.55843C3.96207 4.5096 3.41007 4.55037 2.93961 4.75545C1.61222 5.33968 1.22575 6.86409 1.11808 7.51986C1.11197 7.55575 1.11428 7.59257 1.12481 7.62742C1.13534 7.66227 1.15382 7.6942 1.17878 7.72071C1.20375 7.74721 1.23452 7.76756 1.26868 7.78015C1.30284 7.79275 1.33946 7.79725 1.37565 7.79329L3.50724 7.55819C3.50876 7.71889 3.51846 7.87942 3.53629 8.03914C3.54702 8.15006 3.59626 8.25372 3.67545 8.33211L4.50089 9.1556C4.57936 9.23469 4.68298 9.28391 4.79386 9.29476C4.95269 9.31252 5.11232 9.32222 5.27213 9.32381L5.03824 11.4527C5.03434 11.4889 5.03888 11.5255 5.05149 11.5596C5.0641 11.5938 5.08445 11.6245 5.11094 11.6495C5.13743 11.6744 5.16934 11.6929 5.20417 11.7034C5.239 11.714 5.2758 11.7163 5.31168 11.7103C5.96622 11.6053 7.49332 11.2188 8.07413 9.89144C8.27921 9.42098 8.3212 8.87166 8.27384 8.32235C8.64196 8.06278 8.98677 7.77164 9.30436 7.45223C11.1 5.66561 12.3388 2.43539 11.9945 0.93441ZM7.51285 5.32088C7.34889 5.15702 7.2372 4.94822 7.19192 4.72087C7.14664 4.49353 7.1698 4.25787 7.25848 4.04369C7.34715 3.82951 7.49735 3.64645 7.69008 3.51765C7.88281 3.38884 8.10941 3.3201 8.34122 3.3201C8.57303 3.3201 8.79963 3.38884 8.99236 3.51765C9.18509 3.64645 9.33529 3.82951 9.42397 4.04369C9.51264 4.25787 9.5358 4.49353 9.49052 4.72087C9.44524 4.94822 9.33356 5.15702 9.16959 5.32088C9.06086 5.42976 8.93174 5.51614 8.7896 5.57508C8.64746 5.63402 8.4951 5.66435 8.34122 5.66435C8.18735 5.66435 8.03498 5.63402 7.89285 5.57508C7.75071 5.51614 7.62158 5.42976 7.51285 5.32088Z" fill="black"/>
<path d="M4.44482 9.7522C4.31103 9.88623 4.09643 9.93848 3.83813 9.98315C3.25781 10.082 2.74536 9.58057 2.84961 8.9939C2.8894 8.77148 3.00708 8.45972 3.08032 8.38648C3.09633 8.37078 3.10699 8.35043 3.11078 8.32833C3.11456 8.30623 3.11129 8.2835 3.10143 8.26336C3.09156 8.24323 3.07561 8.22671 3.05582 8.21616C3.03603 8.20561 3.01343 8.20156 2.99121 8.20459C2.66669 8.2443 2.36478 8.39143 2.13354 8.62256C1.55957 9.19702 1.50537 11.3286 1.50537 11.3286C1.50537 11.3286 3.63818 11.2744 4.21216 10.7C4.44401 10.4689 4.59132 10.1665 4.63037 9.84155C4.6394 9.7395 4.51514 9.67871 4.44482 9.7522Z" fill="black"/>
</g>
<defs>
<clipPath id="clip0_454_2023">
<rect width="12.5" height="12.5" fill="white" transform="translate(0.333496)"/>
</clipPath>
</defs>
</svg>
