<svg width="54" height="55" viewBox="0 0 54 55" fill="none" xmlns="http://www.w3.org/2000/svg">
<g clip-path="url(#clip0_205_10052)">
<path d="M42.3566 0.5H11.6434C5.21294 0.5 0 5.71294 0 12.1434V42.8566C0 49.2871 5.21294 54.5 11.6434 54.5H42.3566C48.7871 54.5 54 49.2871 54 42.8566V12.1434C54 5.71294 48.7871 0.5 42.3566 0.5Z" fill="black"/>
<path d="M36.0784 17.6714L30.6273 28.5781L28.7108 17.6714H19.1421L15.377 39.1322H20.828L23.8112 22.0919L20.8868 21.206H24.0146L27.2464 35.3399H32.2409L39.9158 21.206L37.2626 35.3399H42.6911L46.2257 17.6714H36.0784Z" fill="white"/>
<path d="M7.77441 35.3896L11.3 17.7256H17.1759L14.6493 30.3815L11.5215 31.2855H25.4429L24.6068 35.3986L7.77441 35.3896Z" fill="#E44516"/>
</g>
<defs>
<clipPath id="clip0_205_10052">
<rect width="54" height="54" fill="white" transform="translate(0 0.5)"/>
</clipPath>
</defs>
</svg>
