<svg width="15" height="14" viewBox="0 0 15 14" fill="none" xmlns="http://www.w3.org/2000/svg">
<path d="M1.35693 13V11.6667C1.35693 10.9594 1.63789 10.2811 2.13798 9.78105C2.63808 9.28095 3.31636 9 4.0236 9H6.69027C7.39751 9 8.07579 9.28095 8.57589 9.78105C9.07598 10.2811 9.35693 10.9594 9.35693 11.6667V13M10.0236 1.08667C10.5972 1.23354 11.1056 1.56714 11.4687 2.03488C11.8318 2.50262 12.0288 3.07789 12.0288 3.67C12.0288 4.26212 11.8318 4.83739 11.4687 5.30513C11.1056 5.77287 10.5972 6.10647 10.0236 6.25334M13.3569 13V11.6667C13.3535 11.0781 13.1555 10.5072 12.7938 10.043C12.432 9.57869 11.9268 9.24715 11.3569 9.10002M8.0236 3.66667C8.0236 5.13943 6.82969 6.33333 5.35693 6.33333C3.88417 6.33333 2.69027 5.13943 2.69027 3.66667C2.69027 2.19391 3.88417 1 5.35693 1C6.82969 1 8.0236 2.19391 8.0236 3.66667Z" stroke="#2D3748" strokeWidth="1.5" stroke-linecap="round" stroke-linejoin="round"/>
</svg>
