<svg width="19" height="21" viewBox="0 0 19 21" fill="none" xmlns="http://www.w3.org/2000/svg">
<path d="M7.36605 0.333344C6.81377 0.333344 6.36605 0.781063 6.36605 1.33334C6.36605 1.88562 6.81377 2.33334 7.36605 2.33334V0.333344ZM11.7861 2.33334C12.3383 2.33334 12.7861 1.88562 12.7861 1.33334C12.7861 0.781063 12.3383 0.333344 11.7861 0.333344V2.33334ZM7.97605 17.3333C7.97605 16.7811 7.52832 16.3333 6.97605 16.3333C6.42377 16.3333 5.97605 16.7811 5.97605 17.3333H7.97605ZM13.1761 17.3333C13.1761 16.7811 12.7283 16.3333 12.1761 16.3333C11.6238 16.3333 11.1761 16.7811 11.1761 17.3333H13.1761ZM9.57605 3.76801L9.60552 2.76845C9.58619 2.76788 9.56699 2.76786 9.54765 2.76841L9.57605 3.76801ZM16.0683 9.67734L17.0646 9.59134C17.0629 9.57201 17.0607 9.55281 17.0579 9.53361L16.0683 9.67734ZM16.8483 13.6773L15.8927 13.9721C15.9253 14.0775 15.9749 14.1768 16.0398 14.2659L16.8483 13.6773ZM17.1511 16.2267L18.0203 16.7213C18.0413 16.6843 18.0599 16.646 18.0762 16.6067L17.1511 16.2267ZM15.3051 17.3293V18.3295L15.3178 18.3292L15.3051 17.3293ZM3.84436 17.3293L3.83172 18.3293H3.84436V17.3293ZM1.99836 16.2267L1.07369 16.6075C1.08979 16.6465 1.10835 16.6845 1.12925 16.7213L1.99836 16.2267ZM2.29605 13.6813L3.10623 14.2675C3.17028 14.1791 3.21939 14.0805 3.2516 13.9761L2.29605 13.6813ZM3.07605 9.68134L2.08635 9.53814C2.08361 9.55721 2.08141 9.57628 2.07976 9.59534L3.07605 9.68134ZM7.36605 2.33334H11.7861V0.333344H7.36605V2.33334ZM5.97605 17.3333C5.97605 19.3344 7.56405 21 9.57605 21V19C8.71605 19 7.97605 18.2779 7.97605 17.3333H5.97605ZM9.57605 21C11.5881 21 13.1761 19.3344 13.1761 17.3333H11.1761C11.1761 18.2779 10.4361 19 9.57605 19V21ZM9.54659 4.76757C12.3174 4.8492 14.6634 6.96076 15.0786 9.82108L17.0579 9.53361C16.5083 5.74826 13.383 2.87973 9.60552 2.76845L9.54659 4.76757ZM15.0719 9.76334C15.1954 11.1925 15.4705 12.6039 15.8927 13.9721L17.8038 13.3825C17.4237 12.1504 17.1757 10.8791 17.0646 9.59134L15.0719 9.76334ZM16.0398 14.2659C16.3689 14.7179 16.4421 15.3211 16.2262 15.8467L18.0762 16.6067C18.5543 15.4428 18.3971 14.1059 17.6567 13.0888L16.0398 14.2659ZM16.2821 15.732C16.0697 16.1053 15.6907 16.3244 15.2926 16.3295L15.3178 18.3292C16.4425 18.3151 17.465 17.6969 18.0203 16.7213L16.2821 15.732ZM15.3051 16.3293H3.84436V18.3293L15.3051 18.3295V16.3293ZM3.85699 16.3295C3.45883 16.3244 3.07992 16.1053 2.86745 15.732L1.12925 16.7213C1.68455 17.6969 2.70704 18.3152 3.83172 18.3293L3.85699 16.3295ZM2.92301 15.8459C2.70709 15.3216 2.77909 14.7196 3.10623 14.2675L1.48589 13.0952C0.749988 14.1123 0.595534 15.4464 1.07369 16.6075L2.92301 15.8459ZM3.2516 13.9761C3.6738 12.6079 3.94899 11.1965 4.07235 9.76734L2.07976 9.59534C1.9686 10.8831 1.72068 12.1544 1.34051 13.3865L3.2516 13.9761ZM4.06576 9.82454C4.48 6.96034 6.83011 4.84628 9.60445 4.76761L9.54765 2.76841C5.76524 2.87568 2.63457 5.74772 2.08635 9.53814L4.06576 9.82454Z" fill="#525167"/>
</svg>
